<svg xmlns="http://www.w3.org/2000/svg" viewBox="0 0 1050 600" width="1050" height="600"><path fill="rgba(255, 255, 255, 0.0)" d="M0 0h1050v600H0z"/><g stroke="#000" stroke-width="2"><path d="M25 135h990"/><path stroke-linecap="square" d="M1015 129.226l10 5.774-10 5.774z"/></g><path stroke="#000" stroke-width="2" d="M804 125v20"/><g transform="translate(565 25)"><circle cx="110" cy="110" fill="hsl(186, 60%, 80%)" stroke="#000" stroke-width="2" r="109"/><text font-family="Arial, Helvetica, sans-serif" font-size="18" dominant-baseline="middle" text-anchor="middle" transform="translate(110 110)">{ a: 2, b: 4 }</text></g><g transform="translate(305 25)"><circle cx="110" cy="110" fill="hsl(211, 60%, 80%)" stroke="#000" stroke-width="2" r="109"/><text font-family="Arial, Helvetica, sans-serif" font-size="18" dominant-baseline="middle" text-anchor="middle" transform="translate(110 110)">{ a: 2, b: 3 }</text></g><g transform="translate(45 25)"><circle cx="110" cy="110" fill="hsl(257, 60%, 80%)" stroke="#000" stroke-width="2" r="109"/><text font-family="Arial, Helvetica, sans-serif" font-size="18" dominant-baseline="middle" text-anchor="middle" transform="translate(110 110)">{ a: 1 }</text></g><g transform="translate(25 265)"><rect y="10" width="1000" height="48" fill="rgba(255, 255, 255, 0.0)" stroke="#000" stroke-width="2" rx="0"/><text x="500" y="35" font-family="Arial, Helvetica, sans-serif" font-size="24" dominant-baseline="middle" text-anchor="middle">mapToValueAndChangedProperties()</text></g><g><g stroke="#000" stroke-width="2"><path d="M25 465h990"/><path stroke-linecap="square" d="M1015 459.226l10 5.774-10 5.774z"/></g><path stroke="#000" stroke-width="2" d="M804 455v20"/><g transform="translate(565 355)"><circle cx="110" cy="110" fill="hsl(234, 60%, 80%)" stroke="#000" stroke-width="2" r="109"/><text font-family="Arial, Helvetica, sans-serif" font-size="18" dominant-baseline="middle" text-anchor="middle" transform="translate(110 110)">[{ a: 2, b: 4 }, { b: 4 }]</text></g><g transform="translate(305 355)"><circle cx="110" cy="110" fill="hsl(3, 60%, 80%)" stroke="#000" stroke-width="2" r="109"/><text font-family="Arial, Helvetica, sans-serif" font-size="18" dominant-baseline="middle" text-anchor="middle" transform="translate(110 110)">[{ a: 2, b: 3 }, { a: 2, b: 3 }]</text></g><g transform="translate(45 355)"><circle cx="110" cy="110" fill="hsl(81, 60%, 80%)" stroke="#000" stroke-width="2" r="109"/><text font-family="Arial, Helvetica, sans-serif" font-size="18" dominant-baseline="middle" text-anchor="middle" transform="translate(110 110)">[{ a: 1 }, { a: 1 }]</text></g></g></svg>