<svg xmlns="http://www.w3.org/2000/svg" width="652.309" height="300"><path fill="rgba(255, 255, 255, 0.0)" d="M0 0h652.309v300H0z"/><g stroke="#000" stroke-width="2"><path d="M45 45h300"/><path stroke-linecap="square" d="M345 39.226 355 45l-10 5.774z"/></g><path stroke="#000" stroke-width="2" d="M314 35v20"/><g transform="translate(205 25)"><circle cx="20" cy="20" r="19" fill="hsl(32, 60%, 80%)" stroke="#000" stroke-width="2"/><text dominant-baseline="middle" font-family="Arial, Helvetica, sans-serif" font-size="18" text-anchor="middle" transform="translate(20 20)">c</text></g><g transform="translate(115 25)"><circle cx="20" cy="20" r="19" fill="hsl(44, 60%, 80%)" stroke="#000" stroke-width="2"/><text dominant-baseline="middle" font-family="Arial, Helvetica, sans-serif" font-size="18" text-anchor="middle" transform="translate(20 20)">b</text></g><g transform="translate(25 25)"><circle cx="20" cy="20" r="19" fill="hsl(321, 60%, 80%)" stroke="#000" stroke-width="2"/><text dominant-baseline="middle" font-family="Arial, Helvetica, sans-serif" font-size="18" text-anchor="middle" transform="translate(20 20)">a</text></g><g stroke="#000" stroke-width="2"><path d="M315 105h300"/><path stroke-linecap="square" d="M615 99.226 625 105l-10 5.774z"/></g><path stroke="#000" stroke-width="2" d="M584 95v20"/><g transform="translate(475 85)"><circle cx="20" cy="20" r="19" fill="hsl(35, 60%, 80%)" stroke="#000" stroke-width="2"/><text dominant-baseline="middle" font-family="Arial, Helvetica, sans-serif" font-size="18" text-anchor="middle" transform="translate(20 20)">f</text></g><g transform="translate(385 85)"><circle cx="20" cy="20" r="19" fill="hsl(253, 60%, 80%)" stroke="#000" stroke-width="2"/><text dominant-baseline="middle" font-family="Arial, Helvetica, sans-serif" font-size="18" text-anchor="middle" transform="translate(20 20)">e</text></g><g transform="translate(295 85)"><circle cx="20" cy="20" r="19" fill="hsl(79, 60%, 80%)" stroke="#000" stroke-width="2"/><text dominant-baseline="middle" font-family="Arial, Helvetica, sans-serif" font-size="18" text-anchor="middle" transform="translate(20 20)">d</text></g><g transform="translate(25 145)"><rect width="600.309" height="48" x="1" y="11" fill="rgba(255, 255, 255, 0.0)" stroke="#000" stroke-width="2" rx="0"/><text x="301.155" y="35" dominant-baseline="middle" font-family="Arial, Helvetica, sans-serif" font-size="24" text-anchor="middle">onCompletionContinueWith(last =&gt; newObservable)</text></g><g stroke="#000" stroke-width="2"><path d="M45 255h570"/><path stroke-linecap="square" d="M615 249.226 625 255l-10 5.774z"/></g><path stroke="#000" stroke-width="2" d="M584 245v20"/><g transform="translate(475 235)"><circle cx="20" cy="20" r="19" fill="hsl(35, 60%, 80%)" stroke="#000" stroke-width="2"/><text dominant-baseline="middle" font-family="Arial, Helvetica, sans-serif" font-size="18" text-anchor="middle" transform="translate(20 20)">f</text></g><g transform="translate(385 235)"><circle cx="20" cy="20" r="19" fill="hsl(253, 60%, 80%)" stroke="#000" stroke-width="2"/><text dominant-baseline="middle" font-family="Arial, Helvetica, sans-serif" font-size="18" text-anchor="middle" transform="translate(20 20)">e</text></g><g transform="translate(295 235)"><circle cx="20" cy="20" r="19" fill="hsl(79, 60%, 80%)" stroke="#000" stroke-width="2"/><text dominant-baseline="middle" font-family="Arial, Helvetica, sans-serif" font-size="18" text-anchor="middle" transform="translate(20 20)">d</text></g><g transform="translate(205 235)"><circle cx="20" cy="20" r="19" fill="hsl(32, 60%, 80%)" stroke="#000" stroke-width="2"/><text dominant-baseline="middle" font-family="Arial, Helvetica, sans-serif" font-size="18" text-anchor="middle" transform="translate(20 20)">c</text></g><g transform="translate(115 235)"><circle cx="20" cy="20" r="19" fill="hsl(44, 60%, 80%)" stroke="#000" stroke-width="2"/><text dominant-baseline="middle" font-family="Arial, Helvetica, sans-serif" font-size="18" text-anchor="middle" transform="translate(20 20)">b</text></g><g transform="translate(25 235)"><circle cx="20" cy="20" r="19" fill="hsl(321, 60%, 80%)" stroke="#000" stroke-width="2"/><text dominant-baseline="middle" font-family="Arial, Helvetica, sans-serif" font-size="18" text-anchor="middle" transform="translate(20 20)">a</text></g></svg>