<svg xmlns="http://www.w3.org/2000/svg" viewBox="0 0 705 420" width="705" height="420"><path fill="rgba(255, 255, 255, 0.0)" d="M0 0h705v420H0z"/><g stroke="#000" stroke-width="2"><path d="M25 90h645"/><path stroke-linecap="square" d="M670 84.226L680 90l-10 5.774z"/></g><path stroke="#000" stroke-width="2" d="M549 80v20"/><g transform="translate(410 25)"><circle cx="65" cy="65" fill="hsl(330, 60%, 80%)" stroke="#000" stroke-width="2" r="64"/><text font-family="Arial, Helvetica, sans-serif" font-size="18" dominant-baseline="middle" text-anchor="middle" transform="translate(65 65)">{ a: 1, b: 2 }</text></g><g transform="translate(260 25)"><circle cx="65" cy="65" fill="hsl(271, 60%, 80%)" stroke="#000" stroke-width="2" r="64"/><text font-family="Arial, Helvetica, sans-serif" font-size="18" dominant-baseline="middle" text-anchor="middle" transform="translate(65 65)">{ a: null, b: 1 }</text></g><g transform="translate(110 25)"><circle cx="65" cy="65" fill="hsl(120, 60%, 80%)" stroke="#000" stroke-width="2" r="64"/><text font-family="Arial, Helvetica, sans-serif" font-size="18" dominant-baseline="middle" text-anchor="middle" transform="translate(65 65)">{ a: 1, b: null }</text></g><g transform="translate(-40 25)"><circle cx="65" cy="65" fill="hsl(330, 60%, 80%)" stroke="#000" stroke-width="2" r="64"/><text font-family="Arial, Helvetica, sans-serif" font-size="18" dominant-baseline="middle" text-anchor="middle" transform="translate(65 65)">{ a: 1, b: 2 }</text></g><g transform="translate(25 175)"><rect y="10" width="655" height="48" fill="rgba(255, 255, 255, 0.0)" stroke="#000" stroke-width="2" rx="0"/><text x="327.5" y="35" font-family="Arial, Helvetica, sans-serif" font-size="24" dominant-baseline="middle" text-anchor="middle">skipSomePropertyNull()</text></g><g><g stroke="#000" stroke-width="2"><path d="M25 330h645"/><path stroke-linecap="square" d="M670 324.226L680 330l-10 5.774z"/></g><path stroke="#000" stroke-width="2" d="M549 320v20"/><g transform="translate(410 265)"><circle cx="65" cy="65" fill="hsl(330, 60%, 80%)" stroke="#000" stroke-width="2" r="64"/><text font-family="Arial, Helvetica, sans-serif" font-size="18" dominant-baseline="middle" text-anchor="middle" transform="translate(65 65)">{ a: 1, b: 2 }</text></g><g transform="translate(-40 265)"><circle cx="65" cy="65" fill="hsl(330, 60%, 80%)" stroke="#000" stroke-width="2" r="64"/><text font-family="Arial, Helvetica, sans-serif" font-size="18" dominant-baseline="middle" text-anchor="middle" transform="translate(65 65)">{ a: 1, b: 2 }</text></g></g></svg>