<svg xmlns="http://www.w3.org/2000/svg" width="772.309" height="420"><path fill="rgba(255, 255, 255, 0.0)" d="M0 0h772.309v420H0z"/><g stroke="#000" stroke-width="2"><path d="M90 90h645"/><path stroke-linecap="square" d="M735 84.226 745 90l-10 5.774z"/></g><path stroke="#000" stroke-width="2" d="M614 80v20"/><g transform="translate(475 25)"><circle cx="65" cy="65" r="64" fill="hsl(330, 60%, 80%)" stroke="#000" stroke-width="2"/><text dominant-baseline="middle" font-family="Arial, Helvetica, sans-serif" font-size="18" text-anchor="middle" transform="translate(65 65)">{ a: 1, b: 2 }</text></g><g transform="translate(325 25)"><circle cx="65" cy="65" r="64" fill="hsl(271, 60%, 80%)" stroke="#000" stroke-width="2"/><text dominant-baseline="middle" font-family="Arial, Helvetica, sans-serif" font-size="18" text-anchor="middle" transform="translate(65 65)">{ a: null, b: 1 }</text></g><g transform="translate(175 25)"><circle cx="65" cy="65" r="64" fill="hsl(120, 60%, 80%)" stroke="#000" stroke-width="2"/><text dominant-baseline="middle" font-family="Arial, Helvetica, sans-serif" font-size="18" text-anchor="middle" transform="translate(65 65)">{ a: 1, b: null }</text></g><g transform="translate(25 25)"><circle cx="65" cy="65" r="64" fill="hsl(330, 60%, 80%)" stroke="#000" stroke-width="2"/><text dominant-baseline="middle" font-family="Arial, Helvetica, sans-serif" font-size="18" text-anchor="middle" transform="translate(65 65)">{ a: 1, b: 2 }</text></g><g transform="translate(25 175)"><rect width="720.309" height="48" x="1" y="11" fill="rgba(255, 255, 255, 0.0)" stroke="#000" stroke-width="2" rx="0"/><text x="361.155" y="35" dominant-baseline="middle" font-family="Arial, Helvetica, sans-serif" font-size="24" text-anchor="middle">skipSomePropertyNull()</text></g><g stroke="#000" stroke-width="2"><path d="M90 330h645"/><path stroke-linecap="square" d="M735 324.226 745 330l-10 5.774z"/></g><path stroke="#000" stroke-width="2" d="M614 320v20"/><g transform="translate(475 265)"><circle cx="65" cy="65" r="64" fill="hsl(330, 60%, 80%)" stroke="#000" stroke-width="2"/><text dominant-baseline="middle" font-family="Arial, Helvetica, sans-serif" font-size="18" text-anchor="middle" transform="translate(65 65)">{ a: 1, b: 2 }</text></g><g transform="translate(25 265)"><circle cx="65" cy="65" r="64" fill="hsl(330, 60%, 80%)" stroke="#000" stroke-width="2"/><text dominant-baseline="middle" font-family="Arial, Helvetica, sans-serif" font-size="18" text-anchor="middle" transform="translate(65 65)">{ a: 1, b: 2 }</text></g></svg>