<svg xmlns="http://www.w3.org/2000/svg" width="572.309" height="340"><path fill="rgba(255, 255, 255, 0.0)" d="M0 0h572.309v340H0z"/><g stroke="#000" stroke-width="2"><path d="M70 70h465"/><path stroke-linecap="square" d="M535 64.226 545 70l-10 5.774z"/></g><path stroke="#000" stroke-width="2" d="M454 60v20"/><g transform="translate(355 25)"><circle cx="45" cy="45" r="44" fill="hsl(44, 60%, 80%)" stroke="#000" stroke-width="2"/><text dominant-baseline="middle" font-family="Arial, Helvetica, sans-serif" font-size="18" text-anchor="middle" transform="translate(45 45)">b</text></g><g transform="translate(245 25)"><circle cx="45" cy="45" r="44" fill="hsl(288, 60%, 80%)" stroke="#000" stroke-width="2"/><text dominant-baseline="middle" font-family="Arial, Helvetica, sans-serif" font-size="18" text-anchor="middle" transform="translate(45 45)">undefined</text></g><g transform="translate(135 25)"><circle cx="45" cy="45" r="44" fill="hsl(198, 60%, 80%)" stroke="#000" stroke-width="2"/><text dominant-baseline="middle" font-family="Arial, Helvetica, sans-serif" font-size="18" text-anchor="middle" transform="translate(45 45)">null</text></g><g transform="translate(25 25)"><circle cx="45" cy="45" r="44" fill="hsl(321, 60%, 80%)" stroke="#000" stroke-width="2"/><text dominant-baseline="middle" font-family="Arial, Helvetica, sans-serif" font-size="18" text-anchor="middle" transform="translate(45 45)">a</text></g><g transform="translate(25 135)"><rect width="520.309" height="48" x="1" y="11" fill="rgba(255, 255, 255, 0.0)" stroke="#000" stroke-width="2" rx="0"/><text x="261.155" y="35" dominant-baseline="middle" font-family="Arial, Helvetica, sans-serif" font-size="24" text-anchor="middle">skipNil()</text></g><g stroke="#000" stroke-width="2"><path d="M70 270h465"/><path stroke-linecap="square" d="M535 264.226 545 270l-10 5.774z"/></g><path stroke="#000" stroke-width="2" d="M454 260v20"/><g transform="translate(355 225)"><circle cx="45" cy="45" r="44" fill="hsl(44, 60%, 80%)" stroke="#000" stroke-width="2"/><text dominant-baseline="middle" font-family="Arial, Helvetica, sans-serif" font-size="18" text-anchor="middle" transform="translate(45 45)">b</text></g><g transform="translate(25 225)"><circle cx="45" cy="45" r="44" fill="hsl(321, 60%, 80%)" stroke="#000" stroke-width="2"/><text dominant-baseline="middle" font-family="Arial, Helvetica, sans-serif" font-size="18" text-anchor="middle" transform="translate(45 45)">a</text></g></svg>