<svg xmlns="http://www.w3.org/2000/svg" viewBox="0 0 1360 500" width="1360" height="500"><path fill="rgba(255, 255, 255, 0.0)" d="M0 0h1360v500H0z"/><g stroke="#000" stroke-width="2"><path d="M25 110h1300"/><path stroke-linecap="square" d="M1325 104.226l10 5.774-10 5.774z"/></g><path stroke="#000" stroke-width="2" d="M1164 100v20"/><g transform="translate(985 25)"><circle cx="85" cy="85" fill="hsl(330, 60%, 80%)" stroke="#000" stroke-width="2" r="84"/><text font-family="Arial, Helvetica, sans-serif" font-size="18" dominant-baseline="middle" text-anchor="middle" transform="translate(85 85)">{ a: 1, b: 2 }</text></g><g transform="translate(795 25)"><circle cx="85" cy="85" fill="hsl(213, 60%, 80%)" stroke="#000" stroke-width="2" r="84"/><text font-family="Arial, Helvetica, sans-serif" font-size="18" dominant-baseline="middle" text-anchor="middle" transform="translate(85 85)">{ a: 1, b: undefined }</text></g><g transform="translate(605 25)"><circle cx="85" cy="85" fill="hsl(78, 60%, 80%)" stroke="#000" stroke-width="2" r="84"/><text font-family="Arial, Helvetica, sans-serif" font-size="18" dominant-baseline="middle" text-anchor="middle" transform="translate(85 85)">{ a: undefined, b: 1 }</text></g><g transform="translate(320 25)"><circle cx="85" cy="85" fill="hsl(271, 60%, 80%)" stroke="#000" stroke-width="2" r="84"/><text font-family="Arial, Helvetica, sans-serif" font-size="18" dominant-baseline="middle" text-anchor="middle" transform="translate(85 85)">{ a: null, b: 1 }</text></g><g transform="translate(130 25)"><circle cx="85" cy="85" fill="hsl(120, 60%, 80%)" stroke="#000" stroke-width="2" r="84"/><text font-family="Arial, Helvetica, sans-serif" font-size="18" dominant-baseline="middle" text-anchor="middle" transform="translate(85 85)">{ a: 1, b: null }</text></g><g transform="translate(-60 25)"><circle cx="85" cy="85" fill="hsl(330, 60%, 80%)" stroke="#000" stroke-width="2" r="84"/><text font-family="Arial, Helvetica, sans-serif" font-size="18" dominant-baseline="middle" text-anchor="middle" transform="translate(85 85)">{ a: 1, b: 2 }</text></g><g transform="translate(25 215)"><rect y="10" width="1310" height="48" fill="rgba(255, 255, 255, 0.0)" stroke="#000" stroke-width="2" rx="0"/><text x="655" y="35" font-family="Arial, Helvetica, sans-serif" font-size="24" dominant-baseline="middle" text-anchor="middle">skipSomePropertyNil()</text></g><g><g stroke="#000" stroke-width="2"><path d="M25 390h1300"/><path stroke-linecap="square" d="M1325 384.226l10 5.774-10 5.774z"/></g><path stroke="#000" stroke-width="2" d="M1164 380v20"/><g transform="translate(985 305)"><circle cx="85" cy="85" fill="hsl(330, 60%, 80%)" stroke="#000" stroke-width="2" r="84"/><text font-family="Arial, Helvetica, sans-serif" font-size="18" dominant-baseline="middle" text-anchor="middle" transform="translate(85 85)">{ a: 1, b: 2 }</text></g><g transform="translate(-60 305)"><circle cx="85" cy="85" fill="hsl(330, 60%, 80%)" stroke="#000" stroke-width="2" r="84"/><text font-family="Arial, Helvetica, sans-serif" font-size="18" dominant-baseline="middle" text-anchor="middle" transform="translate(85 85)">{ a: 1, b: 2 }</text></g></g></svg>