<svg xmlns="http://www.w3.org/2000/svg" viewBox="0 0 525 340" width="525" height="340"><path fill="rgba(255, 255, 255, 0.0)" d="M0 0h525v340H0z"/><g stroke="#000" stroke-width="2"><path d="M25 70h465"/><path stroke-linecap="square" d="M490 64.226L500 70l-10 5.774z"/></g><path stroke="#000" stroke-width="2" d="M409 60v20"/><g transform="translate(310 25)"><circle cx="45" cy="45" fill="hsl(44, 60%, 80%)" stroke="#000" stroke-width="2" r="44"/><text font-family="Arial, Helvetica, sans-serif" font-size="18" dominant-baseline="middle" text-anchor="middle" transform="translate(45 45)">b</text></g><g transform="translate(200 25)"><circle cx="45" cy="45" fill="hsl(288, 60%, 80%)" stroke="#000" stroke-width="2" r="44"/><text font-family="Arial, Helvetica, sans-serif" font-size="18" dominant-baseline="middle" text-anchor="middle" transform="translate(45 45)">undefined</text></g><g transform="translate(90 25)"><circle cx="45" cy="45" fill="hsl(198, 60%, 80%)" stroke="#000" stroke-width="2" r="44"/><text font-family="Arial, Helvetica, sans-serif" font-size="18" dominant-baseline="middle" text-anchor="middle" transform="translate(45 45)">null</text></g><g transform="translate(-20 25)"><circle cx="45" cy="45" fill="hsl(321, 60%, 80%)" stroke="#000" stroke-width="2" r="44"/><text font-family="Arial, Helvetica, sans-serif" font-size="18" dominant-baseline="middle" text-anchor="middle" transform="translate(45 45)">a</text></g><g transform="translate(25 135)"><rect y="10" width="475" height="48" fill="rgba(255, 255, 255, 0.0)" stroke="#000" stroke-width="2" rx="0"/><text x="237.5" y="35" font-family="Arial, Helvetica, sans-serif" font-size="24" dominant-baseline="middle" text-anchor="middle">skipNil()</text></g><g><g stroke="#000" stroke-width="2"><path d="M25 270h465"/><path stroke-linecap="square" d="M490 264.226L500 270l-10 5.774z"/></g><path stroke="#000" stroke-width="2" d="M409 260v20"/><g transform="translate(310 225)"><circle cx="45" cy="45" fill="hsl(44, 60%, 80%)" stroke="#000" stroke-width="2" r="44"/><text font-family="Arial, Helvetica, sans-serif" font-size="18" dominant-baseline="middle" text-anchor="middle" transform="translate(45 45)">b</text></g><g transform="translate(-20 225)"><circle cx="45" cy="45" fill="hsl(321, 60%, 80%)" stroke="#000" stroke-width="2" r="44"/><text font-family="Arial, Helvetica, sans-serif" font-size="18" dominant-baseline="middle" text-anchor="middle" transform="translate(45 45)">a</text></g></g></svg>