<svg xmlns="http://www.w3.org/2000/svg" viewBox="0 0 555 420" width="555" height="420"><path fill="rgba(255, 255, 255, 0.0)" d="M0 0h555v420H0z"/><g stroke="#000" stroke-width="2"><path d="M25 90h495"/><path stroke-linecap="square" d="M520 84.226L530 90l-10 5.774z"/></g><path stroke="#000" stroke-width="2" d="M399 80v20"/><g transform="translate(260 25)"><circle cx="65" cy="65" fill="hsl(330, 60%, 80%)" stroke="#000" stroke-width="2" r="64"/><text font-family="Arial, Helvetica, sans-serif" font-size="18" dominant-baseline="middle" text-anchor="middle" transform="translate(65 65)">{ a: 1, b: 2 }</text></g><g transform="translate(110 25)"><circle cx="65" cy="65" fill="hsl(120, 60%, 80%)" stroke="#000" stroke-width="2" r="64"/><text font-family="Arial, Helvetica, sans-serif" font-size="18" dominant-baseline="middle" text-anchor="middle" transform="translate(65 65)">{ a: 1, b: null }</text></g><g transform="translate(-40 25)"><circle cx="65" cy="65" fill="hsl(330, 60%, 80%)" stroke="#000" stroke-width="2" r="64"/><text font-family="Arial, Helvetica, sans-serif" font-size="18" dominant-baseline="middle" text-anchor="middle" transform="translate(65 65)">{ a: 1, b: 2 }</text></g><g transform="translate(25 175)"><rect y="10" width="505" height="48" fill="rgba(255, 255, 255, 0.0)" stroke="#000" stroke-width="2" rx="0"/><text x="252.5" y="35" font-family="Arial, Helvetica, sans-serif" font-size="24" dominant-baseline="middle" text-anchor="middle">skipPropertyNull(&quot;b&quot;)</text></g><g><g stroke="#000" stroke-width="2"><path d="M25 330h495"/><path stroke-linecap="square" d="M520 324.226L530 330l-10 5.774z"/></g><path stroke="#000" stroke-width="2" d="M399 320v20"/><g transform="translate(260 265)"><circle cx="65" cy="65" fill="hsl(330, 60%, 80%)" stroke="#000" stroke-width="2" r="64"/><text font-family="Arial, Helvetica, sans-serif" font-size="18" dominant-baseline="middle" text-anchor="middle" transform="translate(65 65)">{ a: 1, b: 2 }</text></g><g transform="translate(-40 265)"><circle cx="65" cy="65" fill="hsl(330, 60%, 80%)" stroke="#000" stroke-width="2" r="64"/><text font-family="Arial, Helvetica, sans-serif" font-size="18" dominant-baseline="middle" text-anchor="middle" transform="translate(65 65)">{ a: 1, b: 2 }</text></g></g></svg>