<svg xmlns="http://www.w3.org/2000/svg" width="252.309" height="240"><path fill="rgba(255, 255, 255, 0.0)" d="M0 0h252.309v240H0z"/><g stroke="#000" stroke-width="2"><path d="M45 45h170"/><path stroke-linecap="square" d="M215 39.226 225 45l-10 5.774z"/></g><path stroke="#000" stroke-width="2" d="M184 35v20"/><g transform="translate(145 25)"><circle cx="20" cy="20" r="19" fill="hsl(44, 60%, 80%)" stroke="#000" stroke-width="2"/><text dominant-baseline="middle" font-family="Arial, Helvetica, sans-serif" font-size="18" text-anchor="middle" transform="translate(20 20)">b</text></g><g transform="translate(105 25)"><circle cx="20" cy="20" r="19" fill="hsl(198, 60%, 80%)" stroke="#000" stroke-width="2"/><text dominant-baseline="middle" font-family="Arial, Helvetica, sans-serif" font-size="18" text-anchor="middle" transform="translate(20 20)">null</text></g><g transform="translate(65 25)"><circle cx="20" cy="20" r="19" fill="hsl(198, 60%, 80%)" stroke="#000" stroke-width="2"/><text dominant-baseline="middle" font-family="Arial, Helvetica, sans-serif" font-size="18" text-anchor="middle" transform="translate(20 20)">null</text></g><g transform="translate(25 25)"><circle cx="20" cy="20" r="19" fill="hsl(321, 60%, 80%)" stroke="#000" stroke-width="2"/><text dominant-baseline="middle" font-family="Arial, Helvetica, sans-serif" font-size="18" text-anchor="middle" transform="translate(20 20)">a</text></g><g transform="translate(25 85)"><rect width="200.309" height="48" x="1" y="11" fill="rgba(255, 255, 255, 0.0)" stroke="#000" stroke-width="2" rx="0"/><text x="101.155" y="35" dominant-baseline="middle" font-family="Arial, Helvetica, sans-serif" font-size="24" text-anchor="middle">skipNull()</text></g><g stroke="#000" stroke-width="2"><path d="M45 195h170"/><path stroke-linecap="square" d="M215 189.226 225 195l-10 5.774z"/></g><path stroke="#000" stroke-width="2" d="M184 185v20"/><g transform="translate(145 175)"><circle cx="20" cy="20" r="19" fill="hsl(44, 60%, 80%)" stroke="#000" stroke-width="2"/><text dominant-baseline="middle" font-family="Arial, Helvetica, sans-serif" font-size="18" text-anchor="middle" transform="translate(20 20)">b</text></g><g transform="translate(25 175)"><circle cx="20" cy="20" r="19" fill="hsl(321, 60%, 80%)" stroke="#000" stroke-width="2"/><text dominant-baseline="middle" font-family="Arial, Helvetica, sans-serif" font-size="18" text-anchor="middle" transform="translate(20 20)">a</text></g></svg>