<svg xmlns="http://www.w3.org/2000/svg" width="2292.309" height="600"><path fill="rgba(255, 255, 255, 0.0)" d="M0 0h2292.309v600H0z"/><g stroke="#000" stroke-width="2"><path d="M25 95h1810"/><path stroke-linecap="square" d="M1835 89.226 1845 95l-10 5.774z"/></g><path stroke="#000" stroke-width="2" d="M1704 85v20"/><g transform="translate(1215 25)"><circle cx="70" cy="70" r="69" fill="hsl(32, 60%, 80%)" stroke="#000" stroke-width="2"/><text dominant-baseline="middle" font-family="Arial, Helvetica, sans-serif" font-size="18" text-anchor="middle" transform="translate(70 70)">c</text></g><g transform="translate(655 25)"><circle cx="70" cy="70" r="69" fill="hsl(44, 60%, 80%)" stroke="#000" stroke-width="2"/><text dominant-baseline="middle" font-family="Arial, Helvetica, sans-serif" font-size="18" text-anchor="middle" transform="translate(70 70)">b</text></g><g transform="translate(95 25)"><circle cx="70" cy="70" r="69" fill="hsl(321, 60%, 80%)" stroke="#000" stroke-width="2"/><text dominant-baseline="middle" font-family="Arial, Helvetica, sans-serif" font-size="18" text-anchor="middle" transform="translate(70 70)">a</text></g><g stroke="#000" stroke-width="2"><path d="M25 255h2230"/><path stroke-linecap="square" d="m2255 249.226 10 5.774-10 5.774z"/></g><path stroke="#000" stroke-width="2" d="M2124 245v20"/><g transform="translate(1495 185)"><circle cx="70" cy="70" r="69" fill="hsl(35, 60%, 80%)" stroke="#000" stroke-width="2"/><text dominant-baseline="middle" font-family="Arial, Helvetica, sans-serif" font-size="18" text-anchor="middle" transform="translate(70 70)">f</text></g><g transform="translate(935 185)"><circle cx="70" cy="70" r="69" fill="hsl(253, 60%, 80%)" stroke="#000" stroke-width="2"/><text dominant-baseline="middle" font-family="Arial, Helvetica, sans-serif" font-size="18" text-anchor="middle" transform="translate(70 70)">e</text></g><g transform="translate(375 185)"><circle cx="70" cy="70" r="69" fill="hsl(79, 60%, 80%)" stroke="#000" stroke-width="2"/><text dominant-baseline="middle" font-family="Arial, Helvetica, sans-serif" font-size="18" text-anchor="middle" transform="translate(70 70)">d</text></g><g transform="translate(25 345)"><rect width="2240.309" height="48" x="1" y="11" fill="rgba(255, 255, 255, 0.0)" stroke="#000" stroke-width="2" rx="0"/><text x="1121.155" y="35" dominant-baseline="middle" font-family="Arial, Helvetica, sans-serif" font-size="24" text-anchor="middle">combineLatestToMap({A: x, B: y})</text></g><g stroke="#000" stroke-width="2"><path d="M25 505h2230"/><path stroke-linecap="square" d="m2255 499.226 10 5.774-10 5.774z"/></g><path stroke="#000" stroke-width="2" d="M2124 495v20"/><g transform="translate(1495 435)"><circle cx="70" cy="70" r="69" fill="hsl(128, 60%, 80%)" stroke="#000" stroke-width="2"/><text dominant-baseline="middle" font-family="Arial, Helvetica, sans-serif" font-size="18" text-anchor="middle" transform="translate(70 70)">{ A: &quot;c&quot;, B: &quot;f&quot; }</text></g><g transform="translate(1215 435)"><circle cx="70" cy="70" r="69" fill="hsl(6, 60%, 80%)" stroke="#000" stroke-width="2"/><text dominant-baseline="middle" font-family="Arial, Helvetica, sans-serif" font-size="18" text-anchor="middle" transform="translate(70 70)">{ A: &quot;c&quot;, B: &quot;e&quot; }</text></g><g transform="translate(935 435)"><circle cx="70" cy="70" r="69" fill="hsl(95, 60%, 80%)" stroke="#000" stroke-width="2"/><text dominant-baseline="middle" font-family="Arial, Helvetica, sans-serif" font-size="18" text-anchor="middle" transform="translate(70 70)">{ A: &quot;b&quot;, B: &quot;e&quot; }</text></g><g transform="translate(655 435)"><circle cx="70" cy="70" r="69" fill="hsl(91, 60%, 80%)" stroke="#000" stroke-width="2"/><text dominant-baseline="middle" font-family="Arial, Helvetica, sans-serif" font-size="18" text-anchor="middle" transform="translate(70 70)">{ A: &quot;b&quot;, B: &quot;d&quot; }</text></g><g transform="translate(375 435)"><circle cx="70" cy="70" r="69" fill="hsl(243, 60%, 80%)" stroke="#000" stroke-width="2"/><text dominant-baseline="middle" font-family="Arial, Helvetica, sans-serif" font-size="18" text-anchor="middle" transform="translate(70 70)">{ A: &quot;a&quot;, B: &quot;d&quot; }</text></g></svg>