<svg xmlns="http://www.w3.org/2000/svg" width="477.309" height="240"><path fill="rgba(255, 255, 255, 0.0)" d="M0 0h477.309v240H0z"/><g stroke="#000" stroke-width="2"><path d="M25 45h415"/><path stroke-linecap="square" d="M440 39.226 450 45l-10 5.774z"/></g><path stroke="#000" stroke-width="2" d="M409 35v20"/><g transform="translate(285 25)"><circle cx="20" cy="20" r="19" fill="hsl(147, 60%, 80%)" stroke="#000" stroke-width="2"/><text dominant-baseline="middle" font-family="Arial, Helvetica, sans-serif" font-size="18" text-anchor="middle" transform="translate(20 20)">3</text></g><g transform="translate(145 25)"><circle cx="20" cy="20" r="19" fill="hsl(206, 60%, 80%)" stroke="#000" stroke-width="2"/><text dominant-baseline="middle" font-family="Arial, Helvetica, sans-serif" font-size="18" text-anchor="middle" transform="translate(20 20)">2</text></g><g transform="translate(40 25)"><circle cx="20" cy="20" r="19" fill="hsl(35, 60%, 80%)" stroke="#000" stroke-width="2"/><text dominant-baseline="middle" font-family="Arial, Helvetica, sans-serif" font-size="18" text-anchor="middle" transform="translate(20 20)">1</text></g><g transform="translate(25 85)"><rect width="425.309" height="48" x="1" y="11" fill="rgba(255, 255, 255, 0.0)" stroke="#000" stroke-width="2" rx="0"/><text x="213.655" y="35" dominant-baseline="middle" font-family="Arial, Helvetica, sans-serif" font-size="24" text-anchor="middle">debounceIf(20, n =&gt; n % 2 === 0)</text></g><g stroke="#000" stroke-width="2"><path d="M25 195h415"/><path stroke-linecap="square" d="M440 189.226 450 195l-10 5.774z"/></g><path stroke="#000" stroke-width="2" d="M409 185v20"/><g transform="translate(285 175)"><circle cx="20" cy="20" r="19" fill="hsl(147, 60%, 80%)" stroke="#000" stroke-width="2"/><text dominant-baseline="middle" font-family="Arial, Helvetica, sans-serif" font-size="18" text-anchor="middle" transform="translate(20 20)">3</text></g><g transform="translate(215 175)"><circle cx="20" cy="20" r="19" fill="hsl(206, 60%, 80%)" stroke="#000" stroke-width="2"/><text dominant-baseline="middle" font-family="Arial, Helvetica, sans-serif" font-size="18" text-anchor="middle" transform="translate(20 20)">2</text></g><g transform="translate(40 175)"><circle cx="20" cy="20" r="19" fill="hsl(35, 60%, 80%)" stroke="#000" stroke-width="2"/><text dominant-baseline="middle" font-family="Arial, Helvetica, sans-serif" font-size="18" text-anchor="middle" transform="translate(20 20)">1</text></g></svg>