<svg xmlns="http://www.w3.org/2000/svg" viewBox="0 0 410 290" width="410" height="290"><path fill="rgba(255, 255, 255, 0.0)" d="M0 0h410v290H0z"/><g stroke="#000" stroke-width="2"><path d="M25 55h350"/><path stroke-linecap="square" d="M375 49.226L385 55l-10 5.774z"/></g><path stroke="#000" stroke-width="2" d="M324 45v20"/><g transform="translate(215 25)"><circle cx="30" cy="30" fill="hsl(119, 60%, 80%)" stroke="#000" stroke-width="2" r="29"/><text font-family="Arial, Helvetica, sans-serif" font-size="18" dominant-baseline="middle" text-anchor="middle" transform="translate(30 30)">{v:2}</text></g><g transform="translate(135 25)"><circle cx="30" cy="30" fill="hsl(185, 60%, 80%)" stroke="#000" stroke-width="2" r="29"/><text font-family="Arial, Helvetica, sans-serif" font-size="18" dominant-baseline="middle" text-anchor="middle" transform="translate(30 30)">{v:1}</text></g><g transform="translate(55 25)"><circle cx="30" cy="30" fill="hsl(185, 60%, 80%)" stroke="#000" stroke-width="2" r="29"/><text font-family="Arial, Helvetica, sans-serif" font-size="18" dominant-baseline="middle" text-anchor="middle" transform="translate(30 30)">{v:1}</text></g><g transform="translate(25 105)"><rect y="10" width="360" height="58" fill="rgba(255, 255, 255, 0.0)" stroke="#000" stroke-width="2" rx="0"/><text x="180" y="40" font-family="Arial, Helvetica, sans-serif" font-size="24" dominant-baseline="middle" text-anchor="middle">distinctUntilChangedDeep()</text></g><g><g stroke="#000" stroke-width="2"><path d="M25 235h350"/><path stroke-linecap="square" d="M375 229.226L385 235l-10 5.774z"/></g><path stroke="#000" stroke-width="2" d="M324 225v20"/><g transform="translate(215 205)"><circle cx="30" cy="30" fill="hsl(119, 60%, 80%)" stroke="#000" stroke-width="2" r="29"/><text font-family="Arial, Helvetica, sans-serif" font-size="18" dominant-baseline="middle" text-anchor="middle" transform="translate(30 30)">{v:2}</text></g><g transform="translate(55 205)"><circle cx="30" cy="30" fill="hsl(185, 60%, 80%)" stroke="#000" stroke-width="2" r="29"/><text font-family="Arial, Helvetica, sans-serif" font-size="18" dominant-baseline="middle" text-anchor="middle" transform="translate(30 30)">{v:1}</text></g></g></svg>