<svg xmlns="http://www.w3.org/2000/svg" viewBox="0 0 630 300" width="630" height="300"><path fill="rgba(255, 255, 255, 0.0)" d="M0 0h630v300H0z"/><g stroke="#000" stroke-width="2"><path d="M25 45h300"/><path stroke-linecap="square" d="M325 39.226L335 45l-10 5.774z"/></g><path stroke="#000" stroke-width="2" d="M294 35v20"/><g transform="translate(185 25)"><circle cx="20" cy="20" fill="hsl(32, 60%, 80%)" stroke="#000" stroke-width="2" r="19"/><text font-family="Arial, Helvetica, sans-serif" font-size="18" dominant-baseline="middle" text-anchor="middle" transform="translate(20 20)">c</text></g><g transform="translate(95 25)"><circle cx="20" cy="20" fill="hsl(44, 60%, 80%)" stroke="#000" stroke-width="2" r="19"/><text font-family="Arial, Helvetica, sans-serif" font-size="18" dominant-baseline="middle" text-anchor="middle" transform="translate(20 20)">b</text></g><g transform="translate(5 25)"><circle cx="20" cy="20" fill="hsl(321, 60%, 80%)" stroke="#000" stroke-width="2" r="19"/><text font-family="Arial, Helvetica, sans-serif" font-size="18" dominant-baseline="middle" text-anchor="middle" transform="translate(20 20)">a</text></g><g><g stroke="#000" stroke-width="2"><path d="M295 105h300"/><path stroke-linecap="square" d="M595 99.226L605 105l-10 5.774z"/></g><path stroke="#000" stroke-width="2" d="M564 95v20"/><g transform="translate(455 85)"><circle cx="20" cy="20" fill="hsl(35, 60%, 80%)" stroke="#000" stroke-width="2" r="19"/><text font-family="Arial, Helvetica, sans-serif" font-size="18" dominant-baseline="middle" text-anchor="middle" transform="translate(20 20)">f</text></g><g transform="translate(365 85)"><circle cx="20" cy="20" fill="hsl(253, 60%, 80%)" stroke="#000" stroke-width="2" r="19"/><text font-family="Arial, Helvetica, sans-serif" font-size="18" dominant-baseline="middle" text-anchor="middle" transform="translate(20 20)">e</text></g><g transform="translate(275 85)"><circle cx="20" cy="20" fill="hsl(79, 60%, 80%)" stroke="#000" stroke-width="2" r="19"/><text font-family="Arial, Helvetica, sans-serif" font-size="18" dominant-baseline="middle" text-anchor="middle" transform="translate(20 20)">d</text></g></g><g transform="translate(25 145)"><rect y="10" width="580" height="48" fill="rgba(255, 255, 255, 0.0)" stroke="#000" stroke-width="2" rx="0"/><text x="290" y="35" font-family="Arial, Helvetica, sans-serif" font-size="24" dominant-baseline="middle" text-anchor="middle">onCompletionContinueWith(last =&gt; newObservable)</text></g><g><g stroke="#000" stroke-width="2"><path d="M25 255h570"/><path stroke-linecap="square" d="M595 249.226L605 255l-10 5.774z"/></g><path stroke="#000" stroke-width="2" d="M564 245v20"/><g transform="translate(455 235)"><circle cx="20" cy="20" fill="hsl(35, 60%, 80%)" stroke="#000" stroke-width="2" r="19"/><text font-family="Arial, Helvetica, sans-serif" font-size="18" dominant-baseline="middle" text-anchor="middle" transform="translate(20 20)">f</text></g><g transform="translate(365 235)"><circle cx="20" cy="20" fill="hsl(253, 60%, 80%)" stroke="#000" stroke-width="2" r="19"/><text font-family="Arial, Helvetica, sans-serif" font-size="18" dominant-baseline="middle" text-anchor="middle" transform="translate(20 20)">e</text></g><g transform="translate(275 235)"><circle cx="20" cy="20" fill="hsl(79, 60%, 80%)" stroke="#000" stroke-width="2" r="19"/><text font-family="Arial, Helvetica, sans-serif" font-size="18" dominant-baseline="middle" text-anchor="middle" transform="translate(20 20)">d</text></g><g transform="translate(185 235)"><circle cx="20" cy="20" fill="hsl(32, 60%, 80%)" stroke="#000" stroke-width="2" r="19"/><text font-family="Arial, Helvetica, sans-serif" font-size="18" dominant-baseline="middle" text-anchor="middle" transform="translate(20 20)">c</text></g><g transform="translate(95 235)"><circle cx="20" cy="20" fill="hsl(44, 60%, 80%)" stroke="#000" stroke-width="2" r="19"/><text font-family="Arial, Helvetica, sans-serif" font-size="18" dominant-baseline="middle" text-anchor="middle" transform="translate(20 20)">b</text></g><g transform="translate(5 235)"><circle cx="20" cy="20" fill="hsl(321, 60%, 80%)" stroke="#000" stroke-width="2" r="19"/><text font-family="Arial, Helvetica, sans-serif" font-size="18" dominant-baseline="middle" text-anchor="middle" transform="translate(20 20)">a</text></g></g></svg>