<svg xmlns="http://www.w3.org/2000/svg" width="352.309" height="300"><path fill="rgba(255, 255, 255, 0.0)" d="M0 0h352.309v300H0z"/><g stroke="#000" stroke-width="2"><path d="M25 45h290"/><path stroke-linecap="square" d="M315 39.226 325 45l-10 5.774z"/></g><path stroke="#000" stroke-width="2" d="M284 35v20"/><g transform="translate(185 25)"><circle cx="20" cy="20" r="19" fill="hsl(32, 60%, 80%)" stroke="#000" stroke-width="2"/><text dominant-baseline="middle" font-family="Arial, Helvetica, sans-serif" font-size="18" text-anchor="middle" transform="translate(20 20)">c</text></g><g transform="translate(105 25)"><circle cx="20" cy="20" r="19" fill="hsl(44, 60%, 80%)" stroke="#000" stroke-width="2"/><text dominant-baseline="middle" font-family="Arial, Helvetica, sans-serif" font-size="18" text-anchor="middle" transform="translate(20 20)">b</text></g><g transform="translate(25 25)"><circle cx="20" cy="20" r="19" fill="hsl(321, 60%, 80%)" stroke="#000" stroke-width="2"/><text dominant-baseline="middle" font-family="Arial, Helvetica, sans-serif" font-size="18" text-anchor="middle" transform="translate(20 20)">a</text></g><g stroke="#000" stroke-width="2"><path d="M25 105h290"/><path stroke-linecap="square" d="M315 99.226 325 105l-10 5.774z"/></g><path stroke="#000" stroke-width="2" d="M284 95v20"/><g transform="translate(225 85)"><circle cx="20" cy="20" r="19" fill="hsl(206, 60%, 80%)" stroke="#000" stroke-width="2"/><text dominant-baseline="middle" font-family="Arial, Helvetica, sans-serif" font-size="18" text-anchor="middle" transform="translate(20 20)">2</text></g><g transform="translate(125 85)"><circle cx="20" cy="20" r="19" fill="hsl(35, 60%, 80%)" stroke="#000" stroke-width="2"/><text dominant-baseline="middle" font-family="Arial, Helvetica, sans-serif" font-size="18" text-anchor="middle" transform="translate(20 20)">1</text></g><g transform="translate(25 145)"><rect width="300.309" height="48" x="1" y="11" fill="rgba(255, 255, 255, 0.0)" stroke="#000" stroke-width="2" rx="0"/><text x="151.155" y="35" dominant-baseline="middle" font-family="Arial, Helvetica, sans-serif" font-size="24" text-anchor="middle">replayOn(signal)</text></g><g stroke="#000" stroke-width="2"><path d="M25 255h290"/><path stroke-linecap="square" d="M315 249.226 325 255l-10 5.774z"/></g><path stroke="#000" stroke-width="2" d="M284 245v20"/><g transform="translate(225 235)"><circle cx="20" cy="20" r="19" fill="hsl(32, 60%, 80%)" stroke="#000" stroke-width="2"/><text dominant-baseline="middle" font-family="Arial, Helvetica, sans-serif" font-size="18" text-anchor="middle" transform="translate(20 20)">c</text></g><g transform="translate(185 235)"><circle cx="20" cy="20" r="19" fill="hsl(32, 60%, 80%)" stroke="#000" stroke-width="2"/><text dominant-baseline="middle" font-family="Arial, Helvetica, sans-serif" font-size="18" text-anchor="middle" transform="translate(20 20)">c</text></g><g transform="translate(125 235)"><circle cx="20" cy="20" r="19" fill="hsl(44, 60%, 80%)" stroke="#000" stroke-width="2"/><text dominant-baseline="middle" font-family="Arial, Helvetica, sans-serif" font-size="18" text-anchor="middle" transform="translate(20 20)">b</text></g><g transform="translate(105 235)"><circle cx="20" cy="20" r="19" fill="hsl(44, 60%, 80%)" stroke="#000" stroke-width="2"/><text dominant-baseline="middle" font-family="Arial, Helvetica, sans-serif" font-size="18" text-anchor="middle" transform="translate(20 20)">b</text></g><g transform="translate(25 235)"><circle cx="20" cy="20" r="19" fill="hsl(321, 60%, 80%)" stroke="#000" stroke-width="2"/><text dominant-baseline="middle" font-family="Arial, Helvetica, sans-serif" font-size="18" text-anchor="middle" transform="translate(20 20)">a</text></g></svg>