<svg xmlns="http://www.w3.org/2000/svg" width="502.309" height="360"><path fill="rgba(255, 255, 255, 0.0)" d="M0 0h502.309v360H0z"/><g stroke="#000" stroke-width="2"><path d="M75 75h390"/><path stroke-linecap="square" d="M465 69.226 475 75l-10 5.774z"/></g><path stroke="#000" stroke-width="2" d="M374 65v20"/><g transform="translate(265 25)"><circle cx="50" cy="50" r="49" fill="hsl(44, 60%, 80%)" stroke="#000" stroke-width="2"/><text dominant-baseline="middle" font-family="Arial, Helvetica, sans-serif" font-size="18" text-anchor="middle" transform="translate(50 50)">b</text></g><g transform="translate(145 25)"><circle cx="50" cy="50" r="49" fill="hsl(288, 60%, 80%)" stroke="#000" stroke-width="2"/><text dominant-baseline="middle" font-family="Arial, Helvetica, sans-serif" font-size="18" text-anchor="middle" transform="translate(50 50)">undefined</text></g><g transform="translate(25 25)"><circle cx="50" cy="50" r="49" fill="hsl(321, 60%, 80%)" stroke="#000" stroke-width="2"/><text dominant-baseline="middle" font-family="Arial, Helvetica, sans-serif" font-size="18" text-anchor="middle" transform="translate(50 50)">a</text></g><g transform="translate(25 145)"><rect width="450.309" height="48" x="1" y="11" fill="rgba(255, 255, 255, 0.0)" stroke="#000" stroke-width="2" rx="0"/><text x="226.155" y="35" dominant-baseline="middle" font-family="Arial, Helvetica, sans-serif" font-size="24" text-anchor="middle">skipUndefined()</text></g><g stroke="#000" stroke-width="2"><path d="M75 285h390"/><path stroke-linecap="square" d="M465 279.226 475 285l-10 5.774z"/></g><path stroke="#000" stroke-width="2" d="M374 275v20"/><g transform="translate(265 235)"><circle cx="50" cy="50" r="49" fill="hsl(44, 60%, 80%)" stroke="#000" stroke-width="2"/><text dominant-baseline="middle" font-family="Arial, Helvetica, sans-serif" font-size="18" text-anchor="middle" transform="translate(50 50)">b</text></g><g transform="translate(25 235)"><circle cx="50" cy="50" r="49" fill="hsl(321, 60%, 80%)" stroke="#000" stroke-width="2"/><text dominant-baseline="middle" font-family="Arial, Helvetica, sans-serif" font-size="18" text-anchor="middle" transform="translate(50 50)">a</text></g></svg>