<svg xmlns="http://www.w3.org/2000/svg" width="782.309" height="500"><path fill="rgba(255, 255, 255, 0.0)" d="M0 0h782.309v500H0z"/><g stroke="#000" stroke-width="2"><path d="M110 110h635"/><path stroke-linecap="square" d="M745 104.226 755 110l-10 5.774z"/></g><path stroke="#000" stroke-width="2" d="M584 100v20"/><g transform="translate(405 25)"><circle cx="85" cy="85" r="84" fill="hsl(330, 60%, 80%)" stroke="#000" stroke-width="2"/><text dominant-baseline="middle" font-family="Arial, Helvetica, sans-serif" font-size="18" text-anchor="middle" transform="translate(85 85)">{ a: 1, b: 2 }</text></g><g transform="translate(215 25)"><circle cx="85" cy="85" r="84" fill="hsl(213, 60%, 80%)" stroke="#000" stroke-width="2"/><text dominant-baseline="middle" font-family="Arial, Helvetica, sans-serif" font-size="18" text-anchor="middle" transform="translate(85 85)">{ a: 1, b: undefined }</text></g><g transform="translate(25 25)"><circle cx="85" cy="85" r="84" fill="hsl(330, 60%, 80%)" stroke="#000" stroke-width="2"/><text dominant-baseline="middle" font-family="Arial, Helvetica, sans-serif" font-size="18" text-anchor="middle" transform="translate(85 85)">{ a: 1, b: 2 }</text></g><g transform="translate(25 215)"><rect width="730.309" height="48" x="1" y="11" fill="rgba(255, 255, 255, 0.0)" stroke="#000" stroke-width="2" rx="0"/><text x="366.155" y="35" dominant-baseline="middle" font-family="Arial, Helvetica, sans-serif" font-size="24" text-anchor="middle">skipPropertyUndefined(&quot;b&quot;)</text></g><g stroke="#000" stroke-width="2"><path d="M110 390h635"/><path stroke-linecap="square" d="M745 384.226 755 390l-10 5.774z"/></g><path stroke="#000" stroke-width="2" d="M584 380v20"/><g transform="translate(405 305)"><circle cx="85" cy="85" r="84" fill="hsl(330, 60%, 80%)" stroke="#000" stroke-width="2"/><text dominant-baseline="middle" font-family="Arial, Helvetica, sans-serif" font-size="18" text-anchor="middle" transform="translate(85 85)">{ a: 1, b: 2 }</text></g><g transform="translate(25 305)"><circle cx="85" cy="85" r="84" fill="hsl(330, 60%, 80%)" stroke="#000" stroke-width="2"/><text dominant-baseline="middle" font-family="Arial, Helvetica, sans-serif" font-size="18" text-anchor="middle" transform="translate(85 85)">{ a: 1, b: 2 }</text></g></svg>