<svg xmlns="http://www.w3.org/2000/svg" width="622.309" height="420"><path fill="rgba(255, 255, 255, 0.0)" d="M0 0h622.309v420H0z"/><g stroke="#000" stroke-width="2"><path d="M90 90h495"/><path stroke-linecap="square" d="M585 84.226 595 90l-10 5.774z"/></g><path stroke="#000" stroke-width="2" d="M464 80v20"/><g transform="translate(325 25)"><circle cx="65" cy="65" r="64" fill="hsl(330, 60%, 80%)" stroke="#000" stroke-width="2"/><text dominant-baseline="middle" font-family="Arial, Helvetica, sans-serif" font-size="18" text-anchor="middle" transform="translate(65 65)">{ a: 1, b: 2 }</text></g><g transform="translate(175 25)"><circle cx="65" cy="65" r="64" fill="hsl(120, 60%, 80%)" stroke="#000" stroke-width="2"/><text dominant-baseline="middle" font-family="Arial, Helvetica, sans-serif" font-size="18" text-anchor="middle" transform="translate(65 65)">{ a: 1, b: null }</text></g><g transform="translate(25 25)"><circle cx="65" cy="65" r="64" fill="hsl(330, 60%, 80%)" stroke="#000" stroke-width="2"/><text dominant-baseline="middle" font-family="Arial, Helvetica, sans-serif" font-size="18" text-anchor="middle" transform="translate(65 65)">{ a: 1, b: 2 }</text></g><g transform="translate(25 175)"><rect width="570.309" height="48" x="1" y="11" fill="rgba(255, 255, 255, 0.0)" stroke="#000" stroke-width="2" rx="0"/><text x="286.155" y="35" dominant-baseline="middle" font-family="Arial, Helvetica, sans-serif" font-size="24" text-anchor="middle">skipPropertyNull(&quot;b&quot;)</text></g><g stroke="#000" stroke-width="2"><path d="M90 330h495"/><path stroke-linecap="square" d="M585 324.226 595 330l-10 5.774z"/></g><path stroke="#000" stroke-width="2" d="M464 320v20"/><g transform="translate(325 265)"><circle cx="65" cy="65" r="64" fill="hsl(330, 60%, 80%)" stroke="#000" stroke-width="2"/><text dominant-baseline="middle" font-family="Arial, Helvetica, sans-serif" font-size="18" text-anchor="middle" transform="translate(65 65)">{ a: 1, b: 2 }</text></g><g transform="translate(25 265)"><circle cx="65" cy="65" r="64" fill="hsl(330, 60%, 80%)" stroke="#000" stroke-width="2"/><text dominant-baseline="middle" font-family="Arial, Helvetica, sans-serif" font-size="18" text-anchor="middle" transform="translate(65 65)">{ a: 1, b: 2 }</text></g></svg>