<svg xmlns="http://www.w3.org/2000/svg" viewBox="0 0 450 360" width="450" height="360"><path fill="rgba(255, 255, 255, 0.0)" d="M0 0h450v360H0z"/><g stroke="#000" stroke-width="2"><path d="M25 75h390"/><path stroke-linecap="square" d="M415 69.226L425 75l-10 5.774z"/></g><path stroke="#000" stroke-width="2" d="M324 65v20"/><g transform="translate(215 25)"><circle cx="50" cy="50" fill="hsl(44, 60%, 80%)" stroke="#000" stroke-width="2" r="49"/><text font-family="Arial, Helvetica, sans-serif" font-size="18" dominant-baseline="middle" text-anchor="middle" transform="translate(50 50)">b</text></g><g transform="translate(95 25)"><circle cx="50" cy="50" fill="hsl(288, 60%, 80%)" stroke="#000" stroke-width="2" r="49"/><text font-family="Arial, Helvetica, sans-serif" font-size="18" dominant-baseline="middle" text-anchor="middle" transform="translate(50 50)">undefined</text></g><g transform="translate(-25 25)"><circle cx="50" cy="50" fill="hsl(321, 60%, 80%)" stroke="#000" stroke-width="2" r="49"/><text font-family="Arial, Helvetica, sans-serif" font-size="18" dominant-baseline="middle" text-anchor="middle" transform="translate(50 50)">a</text></g><g transform="translate(25 145)"><rect y="10" width="400" height="48" fill="rgba(255, 255, 255, 0.0)" stroke="#000" stroke-width="2" rx="0"/><text x="200" y="35" font-family="Arial, Helvetica, sans-serif" font-size="24" dominant-baseline="middle" text-anchor="middle">skipUndefined()</text></g><g><g stroke="#000" stroke-width="2"><path d="M25 285h390"/><path stroke-linecap="square" d="M415 279.226L425 285l-10 5.774z"/></g><path stroke="#000" stroke-width="2" d="M324 275v20"/><g transform="translate(215 235)"><circle cx="50" cy="50" fill="hsl(44, 60%, 80%)" stroke="#000" stroke-width="2" r="49"/><text font-family="Arial, Helvetica, sans-serif" font-size="18" dominant-baseline="middle" text-anchor="middle" transform="translate(50 50)">b</text></g><g transform="translate(-25 235)"><circle cx="50" cy="50" fill="hsl(321, 60%, 80%)" stroke="#000" stroke-width="2" r="49"/><text font-family="Arial, Helvetica, sans-serif" font-size="18" dominant-baseline="middle" text-anchor="middle" transform="translate(50 50)">a</text></g></g></svg>