<svg xmlns="http://www.w3.org/2000/svg" viewBox="0 0 695 500" width="695" height="500"><path fill="rgba(255, 255, 255, 0.0)" d="M0 0h695v500H0z"/><g stroke="#000" stroke-width="2"><path d="M25 110h635"/><path stroke-linecap="square" d="M660 104.226L670 110l-10 5.774z"/></g><path stroke="#000" stroke-width="2" d="M499 100v20"/><g transform="translate(320 25)"><circle cx="85" cy="85" fill="hsl(330, 60%, 80%)" stroke="#000" stroke-width="2" r="84"/><text font-family="Arial, Helvetica, sans-serif" font-size="18" dominant-baseline="middle" text-anchor="middle" transform="translate(85 85)">{ a: 1, b: 2 }</text></g><g transform="translate(130 25)"><circle cx="85" cy="85" fill="hsl(213, 60%, 80%)" stroke="#000" stroke-width="2" r="84"/><text font-family="Arial, Helvetica, sans-serif" font-size="18" dominant-baseline="middle" text-anchor="middle" transform="translate(85 85)">{ a: 1, b: undefined }</text></g><g transform="translate(-60 25)"><circle cx="85" cy="85" fill="hsl(330, 60%, 80%)" stroke="#000" stroke-width="2" r="84"/><text font-family="Arial, Helvetica, sans-serif" font-size="18" dominant-baseline="middle" text-anchor="middle" transform="translate(85 85)">{ a: 1, b: 2 }</text></g><g transform="translate(25 215)"><rect y="10" width="645" height="48" fill="rgba(255, 255, 255, 0.0)" stroke="#000" stroke-width="2" rx="0"/><text x="322.5" y="35" font-family="Arial, Helvetica, sans-serif" font-size="24" dominant-baseline="middle" text-anchor="middle">skipPropertyUndefined(&quot;b&quot;)</text></g><g><g stroke="#000" stroke-width="2"><path d="M25 390h635"/><path stroke-linecap="square" d="M660 384.226L670 390l-10 5.774z"/></g><path stroke="#000" stroke-width="2" d="M499 380v20"/><g transform="translate(320 305)"><circle cx="85" cy="85" fill="hsl(330, 60%, 80%)" stroke="#000" stroke-width="2" r="84"/><text font-family="Arial, Helvetica, sans-serif" font-size="18" dominant-baseline="middle" text-anchor="middle" transform="translate(85 85)">{ a: 1, b: 2 }</text></g><g transform="translate(-60 305)"><circle cx="85" cy="85" fill="hsl(330, 60%, 80%)" stroke="#000" stroke-width="2" r="84"/><text font-family="Arial, Helvetica, sans-serif" font-size="18" dominant-baseline="middle" text-anchor="middle" transform="translate(85 85)">{ a: 1, b: 2 }</text></g></g></svg>