<svg xmlns="http://www.w3.org/2000/svg" viewBox="0 0 230 240" width="230" height="240"><path fill="rgba(255, 255, 255, 0.0)" d="M0 0h230v240H0z"/><g stroke="#000" stroke-width="2"><path d="M25 45h170"/><path stroke-linecap="square" d="M195 39.226L205 45l-10 5.774z"/></g><path stroke="#000" stroke-width="2" d="M164 35v20"/><g transform="translate(125 25)"><circle cx="20" cy="20" fill="hsl(44, 60%, 80%)" stroke="#000" stroke-width="2" r="19"/><text font-family="Arial, Helvetica, sans-serif" font-size="18" dominant-baseline="middle" text-anchor="middle" transform="translate(20 20)">b</text></g><g transform="translate(85 25)"><circle cx="20" cy="20" fill="hsl(198, 60%, 80%)" stroke="#000" stroke-width="2" r="19"/><text font-family="Arial, Helvetica, sans-serif" font-size="18" dominant-baseline="middle" text-anchor="middle" transform="translate(20 20)">null</text></g><g transform="translate(45 25)"><circle cx="20" cy="20" fill="hsl(198, 60%, 80%)" stroke="#000" stroke-width="2" r="19"/><text font-family="Arial, Helvetica, sans-serif" font-size="18" dominant-baseline="middle" text-anchor="middle" transform="translate(20 20)">null</text></g><g transform="translate(5 25)"><circle cx="20" cy="20" fill="hsl(321, 60%, 80%)" stroke="#000" stroke-width="2" r="19"/><text font-family="Arial, Helvetica, sans-serif" font-size="18" dominant-baseline="middle" text-anchor="middle" transform="translate(20 20)">a</text></g><g transform="translate(25 85)"><rect y="10" width="180" height="48" fill="rgba(255, 255, 255, 0.0)" stroke="#000" stroke-width="2" rx="0"/><text x="90" y="35" font-family="Arial, Helvetica, sans-serif" font-size="24" dominant-baseline="middle" text-anchor="middle">skipNull()</text></g><g><g stroke="#000" stroke-width="2"><path d="M25 195h170"/><path stroke-linecap="square" d="M195 189.226L205 195l-10 5.774z"/></g><path stroke="#000" stroke-width="2" d="M164 185v20"/><g transform="translate(125 175)"><circle cx="20" cy="20" fill="hsl(44, 60%, 80%)" stroke="#000" stroke-width="2" r="19"/><text font-family="Arial, Helvetica, sans-serif" font-size="18" dominant-baseline="middle" text-anchor="middle" transform="translate(20 20)">b</text></g><g transform="translate(5 175)"><circle cx="20" cy="20" fill="hsl(321, 60%, 80%)" stroke="#000" stroke-width="2" r="19"/><text font-family="Arial, Helvetica, sans-serif" font-size="18" dominant-baseline="middle" text-anchor="middle" transform="translate(20 20)">a</text></g></g></svg>