<svg xmlns="http://www.w3.org/2000/svg" viewBox="0 0 390 300" width="390" height="300"><path fill="rgba(255, 255, 255, 0.0)" d="M0 0h390v300H0z"/><g stroke="#000" stroke-width="2"><path d="M25 45h330"/><path stroke-linecap="square" d="M355 39.226L365 45l-10 5.774z"/></g><path stroke="#000" stroke-width="2" d="M324 35v20"/><g transform="translate(245 25)"><circle cx="20" cy="20" fill="hsl(44, 60%, 80%)" stroke="#000" stroke-width="2" r="19"/><text font-family="Arial, Helvetica, sans-serif" font-size="18" dominant-baseline="middle" text-anchor="middle" transform="translate(20 20)">b</text></g><g transform="translate(65 25)"><circle cx="20" cy="20" fill="hsl(321, 60%, 80%)" stroke="#000" stroke-width="2" r="19"/><text font-family="Arial, Helvetica, sans-serif" font-size="18" dominant-baseline="middle" text-anchor="middle" transform="translate(20 20)">a</text></g><g><g stroke="#000" stroke-width="2"><path d="M25 105h210"/><path stroke-linecap="square" d="M235 99.226L245 105l-10 5.774z"/></g><path stroke="#000" stroke-width="2" d="M204 95v20"/><g transform="translate(5 85)"><circle cx="20" cy="20" fill="hsl(35, 60%, 80%)" stroke="#000" stroke-width="2" r="19"/><text font-family="Arial, Helvetica, sans-serif" font-size="18" dominant-baseline="middle" text-anchor="middle" transform="translate(20 20)">1</text></g></g><g transform="translate(25 145)"><rect y="10" width="340" height="48" fill="rgba(255, 255, 255, 0.0)" stroke="#000" stroke-width="2" rx="0"/><text x="170" y="35" font-family="Arial, Helvetica, sans-serif" font-size="24" dominant-baseline="middle" text-anchor="middle">takeUntilCompletion(signal)</text></g><g><g stroke="#000" stroke-width="2"><path d="M25 255h210"/><path stroke-linecap="square" d="M235 249.226L245 255l-10 5.774z"/></g><path stroke="#000" stroke-width="2" d="M204 245v20"/><g transform="translate(65 235)"><circle cx="20" cy="20" fill="hsl(321, 60%, 80%)" stroke="#000" stroke-width="2" r="19"/><text font-family="Arial, Helvetica, sans-serif" font-size="18" dominant-baseline="middle" text-anchor="middle" transform="translate(20 20)">a</text></g></g></svg>