<svg xmlns="http://www.w3.org/2000/svg" width="412.309" height="300"><path fill="rgba(255, 255, 255, 0.0)" d="M0 0h412.309v300H0z"/><g stroke="#000" stroke-width="2"><path d="M45 45h330"/><path stroke-linecap="square" d="M375 39.226 385 45l-10 5.774z"/></g><path stroke="#000" stroke-width="2" d="M344 35v20"/><g transform="translate(265 25)"><circle cx="20" cy="20" r="19" fill="hsl(44, 60%, 80%)" stroke="#000" stroke-width="2"/><text dominant-baseline="middle" font-family="Arial, Helvetica, sans-serif" font-size="18" text-anchor="middle" transform="translate(20 20)">b</text></g><g transform="translate(85 25)"><circle cx="20" cy="20" r="19" fill="hsl(321, 60%, 80%)" stroke="#000" stroke-width="2"/><text dominant-baseline="middle" font-family="Arial, Helvetica, sans-serif" font-size="18" text-anchor="middle" transform="translate(20 20)">a</text></g><g stroke="#000" stroke-width="2"><path d="M45 105h210"/><path stroke-linecap="square" d="M255 99.226 265 105l-10 5.774z"/></g><path stroke="#000" stroke-width="2" d="M224 95v20"/><g transform="translate(25 85)"><circle cx="20" cy="20" r="19" fill="hsl(35, 60%, 80%)" stroke="#000" stroke-width="2"/><text dominant-baseline="middle" font-family="Arial, Helvetica, sans-serif" font-size="18" text-anchor="middle" transform="translate(20 20)">1</text></g><g transform="translate(25 145)"><rect width="360.309" height="48" x="1" y="11" fill="rgba(255, 255, 255, 0.0)" stroke="#000" stroke-width="2" rx="0"/><text x="181.155" y="35" dominant-baseline="middle" font-family="Arial, Helvetica, sans-serif" font-size="24" text-anchor="middle">takeUntilCompletion(signal)</text></g><g stroke="#000" stroke-width="2"><path d="M45 255h210"/><path stroke-linecap="square" d="M255 249.226 265 255l-10 5.774z"/></g><path stroke="#000" stroke-width="2" d="M224 245v20"/><g transform="translate(85 235)"><circle cx="20" cy="20" r="19" fill="hsl(321, 60%, 80%)" stroke="#000" stroke-width="2"/><text dominant-baseline="middle" font-family="Arial, Helvetica, sans-serif" font-size="18" text-anchor="middle" transform="translate(20 20)">a</text></g></svg>